<svg xmlns="http://www.w3.org/2000/svg" width="1368" height="995" viewBox="0 0 1368 995"><defs><style type="text/css"/></defs><g transform="translate(57.2900390625 85.59797974644664) scale(1)"><g class="relationship"><g transform="translate(75 50) rotate(0)" stroke-width="5" stroke="#000000"><path d="M 59 0 L 495.44604260290134 0"/><polygon points="-24.8621506177483,0 -27.62461179749811,9.20820393249937 0,0 -27.62461179749811,-9.20820393249937" fill="#000000" transform="translate(520.3081932206496 0) rotate(0)" stroke="none"/></g><g transform="translate(352.2230213014507 50) rotate(0) translate(0 -46.4)"><g transform="translate(0 0)"><g transform="translate(-34.51806640625 0)" fill="#ffffff" stroke="#000000" stroke-width="0"><rect x="0" y="0" width="69.0361328125" height="28" rx="5" ry="5" stroke="none"/><text xml:space="preserve" x="5" y="19" stroke="none" text-anchor="left" font-family="sans-serif" font-size="18" font-weight="normal" fill="#000000">relation</text></g></g><g transform="translate(0 28)"><g transform="translate(-44.52099609375 0)" fill="white"><rect x="0" y="0" width="89.0419921875" height="64.8" rx="0" ry="0" stroke="none"/><g font-family="sans-serif" font-size="18" font-weight="normal" fill="#000000" text-anchor="end"><text xml:space="preserve" x="69.029296875" y="15.799999999999999" stroke="none">owns:</text><text xml:space="preserve" x="74.0302734375" y="15.799999999999999" stroke="none" text-anchor="start">1</text><text xml:space="preserve" x="69.029296875" y="37.4" stroke="none" text-anchor="end">access:</text><text xml:space="preserve" x="74.0302734375" y="37.4" stroke="none" text-anchor="start">1</text><text xml:space="preserve" x="69.029296875" y="58.99999999999999" stroke="none" text-anchor="end">control :</text><text xml:space="preserve" x="74.0302734375" y="58.99999999999999" stroke="none" text-anchor="start">1</text></g></g></g></g></g><g class="relationship"><g transform="translate(1255.860030727199 553.2491173030921) rotate(-140.08466015142884)" stroke-width="5" stroke="#000000"><path d="M 59 0 L 700.4364451184977 0"/><polygon points="-24.8621506177483,0 -27.62461179749811,9.20820393249937 0,0 -27.62461179749811,-9.20820393249937" fill="#000000" transform="translate(725.2985957362459 0) rotate(0)" stroke="none"/></g><g transform="translate(964.6186645472535 309.60102030827846) rotate(39.91533984857115) translate(0 -14)"><g transform="translate(0 0)"><g transform="translate(-41.0263671875 0)" fill="#ffffff" stroke="#000000" stroke-width="0"><rect x="0" y="0" width="82.052734375" height="28" rx="5" ry="5" stroke="none"/><text xml:space="preserve" x="5" y="19" stroke="none" text-anchor="left" font-family="sans-serif" font-size="18" font-weight="normal" fill="#000000">assigned</text></g></g></g></g><g class="relationship"><g transform="translate(1255.860030727199 333.41641672439073) rotate(90)" stroke-width="5" stroke="#000000"><path d="M 59 0 L 135.97054996095312 0"/><polygon points="-24.8621506177483,0 -27.62461179749811,9.20820393249937 0,0 -27.62461179749811,-9.20820393249937" fill="#000000" transform="translate(160.8327005787014 0) rotate(0)" stroke="none"/></g><g transform="translate(1255.860030727199 430.9016917048673) rotate(270) translate(0 -14)"><g transform="translate(0 0)"><g transform="translate(-26.51123046875 0)" fill="#ffffff" stroke="#000000" stroke-width="0"><rect x="0" y="0" width="53.0224609375" height="28" rx="5" ry="5" stroke="none"/><text xml:space="preserve" x="5" y="19" stroke="none" text-anchor="left" font-family="sans-serif" font-size="18" font-weight="normal" fill="#000000">entity</text></g></g></g></g><g class="relationship"><g transform="translate(75 50) rotate(40.981076835114074)" stroke-width="5" stroke="#000000"><path d="M 59 0 L 683.5084617977357 0"/><polygon points="-24.8621506177483,0 -27.62461179749811,9.20820393249937 0,0 -27.62461179749811,-9.20820393249937" fill="#000000" transform="translate(708.370612415484 0) rotate(0)" stroke="none"/></g><g transform="translate(355.269551958158 293.4721384583526) rotate(40.981076835114074) translate(0 -46.4)"><g transform="translate(0 0)"><g transform="translate(-34.51806640625 0)" fill="#ffffff" stroke="#000000" stroke-width="0"><rect x="0" y="0" width="69.0361328125" height="28" rx="5" ry="5" stroke="none"/><text xml:space="preserve" x="5" y="19" stroke="none" text-anchor="left" font-family="sans-serif" font-size="18" font-weight="normal" fill="#000000">relation</text></g></g><g transform="translate(0 28)"><g transform="translate(-44.52099609375 0)" fill="white"><rect x="0" y="0" width="89.0419921875" height="64.8" rx="0" ry="0" stroke="none"/><g font-family="sans-serif" font-size="18" font-weight="normal" fill="#000000" text-anchor="end"><text xml:space="preserve" x="69.029296875" y="15.799999999999999" stroke="none">owns:</text><text xml:space="preserve" x="74.0302734375" y="15.799999999999999" stroke="none" text-anchor="start">0</text><text xml:space="preserve" x="69.029296875" y="37.4" stroke="none" text-anchor="end">access:</text><text xml:space="preserve" x="74.0302734375" y="37.4" stroke="none" text-anchor="start">0</text><text xml:space="preserve" x="69.029296875" y="58.99999999999999" stroke="none" text-anchor="end">control :</text><text xml:space="preserve" x="74.0302734375" y="58.99999999999999" stroke="none" text-anchor="start">1</text></g></g></g></g></g><g class="relationship"><g transform="translate(75 553.2491173030921) rotate(0)" stroke-width="5" stroke="#000000"><path d="M 59 0 L 495.44604260290134 0"/><polygon points="-24.8621506177483,0 -27.62461179749811,9.20820393249937 0,0 -27.62461179749811,-9.20820393249937" fill="#000000" transform="translate(520.3081932206496 0) rotate(0)" stroke="none"/></g><g transform="translate(352.2230213014507 553.2491173030921) rotate(0) translate(0 -46.4)"><g transform="translate(0 0)"><g transform="translate(-34.51806640625 0)" fill="#ffffff" stroke="#000000" stroke-width="0"><rect x="0" y="0" width="69.0361328125" height="28" rx="5" ry="5" stroke="none"/><text xml:space="preserve" x="5" y="19" stroke="none" text-anchor="left" font-family="sans-serif" font-size="18" font-weight="normal" fill="#000000">relation</text></g></g><g transform="translate(0 28)"><g transform="translate(-43.01806640625 0)" fill="white"><rect x="0" y="0" width="86.0361328125" height="64.8" rx="0" ry="0" stroke="none"/><g font-family="sans-serif" font-size="18" font-weight="normal" fill="#000000" text-anchor="end"><text xml:space="preserve" x="66.0234375" y="15.799999999999999" stroke="none">owns:</text><text xml:space="preserve" x="71.0244140625" y="15.799999999999999" stroke="none" text-anchor="start">0</text><text xml:space="preserve" x="66.0234375" y="37.4" stroke="none" text-anchor="end">access:</text><text xml:space="preserve" x="71.0244140625" y="37.4" stroke="none" text-anchor="start">1</text><text xml:space="preserve" x="66.0234375" y="58.99999999999999" stroke="none" text-anchor="end">control:</text><text xml:space="preserve" x="71.0244140625" y="58.99999999999999" stroke="none" text-anchor="start">0</text></g></g></g></g></g><g class="relationship"><g stroke-width="5" stroke="#000000"><path d="M 1196.860030727199 553.2491173030921 L 1193.9110037598346 553.2491173030921 A 40 40 0 0 1 1193.9110037598346 553.2491173030921 L 738.1703438383979 553.2491173030921 L 738.1703438383979 553.2491173030921"/><polygon points="-24.8621506177483,0 -27.62461179749811,9.20820393249937 0,0 -27.62461179749811,-9.20820393249937" fill="#000000" transform="translate(738.1703438383979 553.2491173030921) rotate(180) translate(24.8621506177483 0)" stroke="none"/></g><g transform="translate(966.0406737991162 553.2491173030921) rotate(360) translate(0 -14)"><g transform="translate(0 0)"><g transform="translate(-41.0263671875 0)" fill="#ffffff" stroke="#000000" stroke-width="0"><rect x="0" y="0" width="82.052734375" height="28" rx="5" ry="5" stroke="none"/><text xml:space="preserve" x="5" y="19" stroke="none" text-anchor="left" font-family="sans-serif" font-size="18" font-weight="normal" fill="#000000">assigned</text></g></g></g></g><g class="relationship"><g transform="translate(654.3081932206496 553.2491173030921) rotate(-90)" stroke-width="5" stroke="#000000"><path d="M 59 0 L 419.38696668534385 0"/><polygon points="-24.8621506177483,0 -27.62461179749811,9.20820393249937 0,0 -27.62461179749811,-9.20820393249937" fill="#000000" transform="translate(444.24911730309213 0) rotate(0)" stroke="none"/></g><g transform="translate(654.3081932206496 314.0556339604202) rotate(90) translate(0 -13)"><g transform="translate(0 0)"><g transform="translate(-24.5625 0)" fill="#ffffff" stroke="#000000" stroke-width="0"><rect x="0" y="0" width="49.125" height="26" rx="5" ry="5" stroke="none"/><text xml:space="preserve" x="5" y="17.5" stroke="none" text-anchor="left" font-family="sans-serif" font-size="16" font-weight="normal" fill="#000000">rights</text></g></g></g></g><g class="relationship"><g transform="translate(75 553.2491173030921) rotate(20.780477802165876)" stroke-width="5" stroke="#000000"><path d="M 59 0 L 535.7541814590446 0"/><polygon points="-24.8621506177483,0 -27.62461179749811,9.20820393249937 0,0 -27.62461179749811,-9.20820393249937" fill="#000000" transform="translate(560.6163320767929 0) rotate(0)" stroke="none"/></g><g transform="translate(353.0317048104889 658.755066002337) rotate(20.780477802165876) translate(0 -46.4)"><g transform="translate(0 0)"><g transform="translate(-34.51806640625 0)" fill="#ffffff" stroke="#000000" stroke-width="0"><rect x="0" y="0" width="69.0361328125" height="28" rx="5" ry="5" stroke="none"/><text xml:space="preserve" x="5" y="19" stroke="none" text-anchor="left" font-family="sans-serif" font-size="18" font-weight="normal" fill="#000000">relation</text></g></g><g transform="translate(0 28)"><g transform="translate(-43.01806640625 0)" fill="white"><rect x="0" y="0" width="86.0361328125" height="64.8" rx="0" ry="0" stroke="none"/><g font-family="sans-serif" font-size="18" font-weight="normal" fill="#000000" text-anchor="end"><text xml:space="preserve" x="66.0234375" y="15.799999999999999" stroke="none">owns:</text><text xml:space="preserve" x="71.0244140625" y="15.799999999999999" stroke="none" text-anchor="start">0</text><text xml:space="preserve" x="66.0234375" y="37.4" stroke="none" text-anchor="end">access:</text><text xml:space="preserve" x="71.0244140625" y="37.4" stroke="none" text-anchor="start">0</text><text xml:space="preserve" x="66.0234375" y="58.99999999999999" stroke="none" text-anchor="end">control:</text><text xml:space="preserve" x="71.0244140625" y="58.99999999999999" stroke="none" text-anchor="start">1</text></g></g></g></g></g><g class="relationship"><g transform="translate(75 773.0818178817934) rotate(0)" stroke-width="5" stroke="#000000"><path d="M 59 0 L 495.44604260290134 0"/><polygon points="-24.8621506177483,0 -27.62461179749811,9.20820393249937 0,0 -27.62461179749811,-9.20820393249937" fill="#000000" transform="translate(520.3081932206496 0) rotate(0)" stroke="none"/></g><g transform="translate(352.2230213014507 773.0818178817934) rotate(0) translate(0 -46.4)"><g transform="translate(0 0)"><g transform="translate(-34.51806640625 0)" fill="#ffffff" stroke="#000000" stroke-width="0"><rect x="0" y="0" width="69.0361328125" height="28" rx="5" ry="5" stroke="none"/><text xml:space="preserve" x="5" y="19" stroke="none" text-anchor="left" font-family="sans-serif" font-size="18" font-weight="normal" fill="#000000">relation</text></g></g><g transform="translate(0 28)"><g transform="translate(-43.01806640625 0)" fill="white"><rect x="0" y="0" width="86.0361328125" height="64.8" rx="0" ry="0" stroke="none"/><g font-family="sans-serif" font-size="18" font-weight="normal" fill="#000000" text-anchor="end"><text xml:space="preserve" x="66.0234375" y="15.799999999999999" stroke="none">owns:</text><text xml:space="preserve" x="71.0244140625" y="15.799999999999999" stroke="none" text-anchor="start">0</text><text xml:space="preserve" x="66.0234375" y="37.4" stroke="none" text-anchor="end">access:</text><text xml:space="preserve" x="71.0244140625" y="37.4" stroke="none" text-anchor="start">1</text><text xml:space="preserve" x="66.0234375" y="58.99999999999999" stroke="none" text-anchor="end">control:</text><text xml:space="preserve" x="71.0244140625" y="58.99999999999999" stroke="none" text-anchor="start">0</text></g></g></g></g></g><g class="relationship"><g transform="translate(654.3081932206496 773.0818178817934) rotate(-90)" stroke-width="5" stroke="#000000"><path d="M 59 0 L 135.970549960953 0"/><polygon points="-24.8621506177483,0 -27.62461179749811,9.20820393249937 0,0 -27.62461179749811,-9.20820393249937" fill="#000000" transform="translate(160.8327005787013 0) rotate(0)" stroke="none"/></g><g transform="translate(654.3081932206496 675.596542901317) rotate(90) translate(0 -13)"><g transform="translate(0 0)"><g transform="translate(-24.5625 0)" fill="#ffffff" stroke="#000000" stroke-width="0"><rect x="0" y="0" width="49.125" height="26" rx="5" ry="5" stroke="none"/><text xml:space="preserve" x="5" y="17.5" stroke="none" text-anchor="left" font-family="sans-serif" font-size="16" font-weight="normal" fill="#000000">rights</text></g></g></g></g><g class="relationship"><g transform="translate(1255.860030727199 553.2491173030921) rotate(159.92554044191286)" stroke-width="5" stroke="#000000"><path d="M 59 0 L 556.5994246943316 0"/><polygon points="-24.8621506177483,0 -27.62461179749811,9.20820393249937 0,0 -27.62461179749811,-9.20820393249937" fill="#000000" transform="translate(581.4615753120798 0) rotate(0)" stroke="none"/></g><g transform="translate(966.7599665177222 658.8986123093363) rotate(339.9255404419128) translate(0 -14)"><g transform="translate(0 0)"><g transform="translate(-41.0263671875 0)" fill="#ffffff" stroke="#000000" stroke-width="0"><rect x="0" y="0" width="82.052734375" height="28" rx="5" ry="5" stroke="none"/><text xml:space="preserve" x="5" y="19" stroke="none" text-anchor="left" font-family="sans-serif" font-size="18" font-weight="normal" fill="#000000">assigned</text></g></g></g></g><g class="relationship"><g transform="translate(654.3081932206496 553.2491173030921) rotate(-159.21952219783412)" stroke-width="5" stroke="#000000"><path d="M 59 0 L 535.7541814590446 0"/><polygon points="-24.8621506177483,0 -27.62461179749811,9.20820393249937 0,0 -27.62461179749811,-9.20820393249937" fill="#000000" transform="translate(560.6163320767929 0) rotate(0)" stroke="none"/></g><g transform="translate(376.2764884101607 447.74316860384727) rotate(20.78047780216587) translate(0 -14)"><g transform="translate(0 0)"><g transform="translate(-52.0126953125 0)" fill="#ffffff" stroke="#000000" stroke-width="0"><rect x="0" y="0" width="104.025390625" height="28" rx="5" ry="5" stroke="none"/><text xml:space="preserve" x="5" y="19" stroke="none" text-anchor="left" font-family="sans-serif" font-size="18" font-weight="normal" fill="#000000">DigitAccess</text></g></g></g></g><g class="relationship"><g transform="translate(1255.860030727199 50) rotate(90)" stroke-width="5" stroke="#000000"><path d="M 59 0 L 199.55426610664242 0"/><polygon points="-24.8621506177483,0 -27.62461179749811,9.20820393249937 0,0 -27.62461179749811,-9.20820393249937" fill="#000000" transform="translate(224.41641672439073 0) rotate(0)" stroke="none"/></g><g transform="translate(1255.860030727199 179.27713305332122) rotate(270) translate(0 -13)"><g transform="translate(0 0)"><g transform="translate(-43.25 0)" fill="#ffffff" stroke="#000000" stroke-width="0"><rect x="0" y="0" width="86.5" height="26" rx="5" ry="5" stroke="none"/><text xml:space="preserve" x="5" y="17.5" stroke="none" text-anchor="left" font-family="sans-serif" font-size="16" font-weight="normal" fill="#000000">application</text></g></g></g></g><g class="node"><g fill="#009ce0" stroke="#000000" stroke-width="4"><circle cx="1255.860030727199" cy="333.41641672439073" r="52"/></g><g transform="translate(1255.860030727199 333.41641672439073)"><g transform="scale(0.2337964134874004) translate(0 -91)"><g transform="translate(0 0)"><g fill="#000000" font-family="sans-serif" font-size="100" font-weight="normal" text-anchor="middle"><text xml:space="preserve" x="0" y="87" stroke="none">E</text></g></g><g transform="translate(0 124)"><g transform="translate(-169.6044921875 0)"><g fill="#ffffff" stroke="#000000" stroke-width="4"><rect x="0" y="0" width="339.208984375" height="58" rx="29" ry="29"/><text xml:space="preserve" x="29" y="40.5" stroke="none" font-family="sans-serif" font-size="44" font-weight="normal" fill="#000000">ExampleClass</text></g></g></g></g></g></g><g class="node"><g fill="#9f0500" stroke="#000000" stroke-width="4"><circle cx="654.3081932206496" cy="50" r="52"/></g><g transform="translate(654.3081932206496 50)"><g transform="scale(0.4854695796726482) translate(0 -59)"><g transform="translate(0 0)"><g fill="#000000" font-family="sans-serif" font-size="50" font-weight="normal" text-anchor="middle"><text xml:space="preserve" x="0" y="43" stroke="none">OA</text></g></g><g transform="translate(0 64)"><g transform="translate(-71.4921875 0)"><g fill="#ffffff" stroke="#000000" stroke-width="4"><rect x="0" y="0" width="142.984375" height="54" rx="27" ry="27"/><text xml:space="preserve" x="27" y="37.5" stroke="none" font-family="sans-serif" font-size="40" font-weight="normal" fill="#000000">oa#4</text></g></g></g></g><g transform="translate(39.59797974644666 -135.59797974644664)"><g transform="translate(0 0)"><g transform="translate(0 0)" fill="white"><rect x="0" y="0" width="392.275390625" height="96" rx="0" ry="0" stroke="none"/><g font-family="sans-serif" font-size="20" font-weight="normal" fill="#000000" text-anchor="end"><text xml:space="preserve" x="200.107421875" y="17.5" stroke="none">readProperties:</text><text xml:space="preserve" x="205.6640625" y="17.5" stroke="none" text-anchor="start">["a", "b", "c", "d", "e"]</text><text xml:space="preserve" x="200.107421875" y="41.5" stroke="none" text-anchor="end">writeProperties:</text><text xml:space="preserve" x="205.6640625" y="41.5" stroke="none" text-anchor="start">["a", "b", "c", "d", "e"]</text><text xml:space="preserve" x="200.107421875" y="65.5" stroke="none" text-anchor="end">shareReadProperties:</text><text xml:space="preserve" x="205.6640625" y="65.5" stroke="none" text-anchor="start">["a", "b", "c", "d", "e"]</text><text xml:space="preserve" x="200.107421875" y="89.5" stroke="none" text-anchor="end">shareWriteProperties:</text><text xml:space="preserve" x="205.6640625" y="89.5" stroke="none" text-anchor="start">["a", "b", "c", "d", "e"]</text></g></g></g></g></g></g><g class="node"><g fill="#fcdc00" stroke="#000000" stroke-width="4"><circle cx="1255.860030727199" cy="553.2491173030921" r="52"/></g><g transform="translate(1255.860030727199 553.2491173030921)"><g transform="scale(0.4432631306540652) translate(0 -59)"><g transform="translate(0 0)"><g fill="#000000" font-family="sans-serif" font-size="50" font-weight="normal" text-anchor="middle"><text xml:space="preserve" x="0" y="43" stroke="none">O</text></g></g><g transform="translate(0 64)"><g transform="translate(-82.615234375 0)"><g fill="#ffffff" stroke="#000000" stroke-width="4"><rect x="0" y="0" width="165.23046875" height="54" rx="27" ry="27"/><text xml:space="preserve" x="27" y="37.5" stroke="none" font-family="sans-serif" font-size="40" font-weight="normal" fill="#000000">#3435</text></g></g></g></g></g></g><g class="node"><g fill="#ffffff" stroke="#000000" stroke-width="4"><circle cx="75" cy="50" r="52"/></g><g transform="translate(75 50)"><g transform="scale(0.5855436252184943) translate(0 -59)"><g transform="translate(0 0)"><g fill="#000000" font-family="sans-serif" font-size="50" font-weight="normal" text-anchor="middle"><text xml:space="preserve" x="0" y="43" stroke="none">I</text></g></g><g transform="translate(0 64)"><g transform="translate(-49.24609375 0)"><g fill="#ffffff" stroke="#000000" stroke-width="4"><rect x="0" y="0" width="98.4921875" height="54" rx="27" ry="27"/><text xml:space="preserve" x="27" y="37.5" stroke="none" font-family="sans-serif" font-size="40" font-weight="normal" fill="#000000">#1</text></g></g></g></g></g></g><g class="node"><g fill="#ffffff" stroke="#000000" stroke-width="4"><circle cx="75" cy="553.2491173030921" r="52"/></g><g transform="translate(75 553.2491173030921)"><g transform="scale(0.5855436252184943) translate(0 -59)"><g transform="translate(0 0)"><g fill="#000000" font-family="sans-serif" font-size="50" font-weight="normal" text-anchor="middle"><text xml:space="preserve" x="0" y="43" stroke="none">I</text></g></g><g transform="translate(0 64)"><g transform="translate(-49.24609375 0)"><g fill="#ffffff" stroke="#000000" stroke-width="4"><rect x="0" y="0" width="98.4921875" height="54" rx="27" ry="27"/><text xml:space="preserve" x="27" y="37.5" stroke="none" font-family="sans-serif" font-size="40" font-weight="normal" fill="#000000">#2</text></g></g></g></g></g></g><g class="node"><g fill="#9f0500" stroke="#000000" stroke-width="4"><circle cx="654.3081932206496" cy="553.2491173030921" r="52"/></g><g transform="translate(654.3081932206496 553.2491173030921)"><g transform="scale(0.4854695796726482) translate(0 -59)"><g transform="translate(0 0)"><g fill="#000000" font-family="sans-serif" font-size="50" font-weight="normal" text-anchor="middle"><text xml:space="preserve" x="0" y="43" stroke="none">OA</text></g></g><g transform="translate(0 64)"><g transform="translate(-71.4921875 0)"><g fill="#ffffff" stroke="#000000" stroke-width="4"><rect x="0" y="0" width="142.984375" height="54" rx="27" ry="27"/><text xml:space="preserve" x="27" y="37.5" stroke="none" font-family="sans-serif" font-size="40" font-weight="normal" fill="#000000">oa#5</text></g></g></g></g><g transform="translate(39.59797974644666 -135.59797974644664)"><g transform="translate(0 0)"><g transform="translate(0 0)" fill="white"><rect x="0" y="0" width="355.83984375" height="96" rx="0" ry="0" stroke="none"/><g font-family="sans-serif" font-size="20" font-weight="normal" fill="#000000" text-anchor="end"><text xml:space="preserve" x="200.107421875" y="17.5" stroke="none">readProperties:</text><text xml:space="preserve" x="205.6640625" y="17.5" stroke="none" text-anchor="start">["a", "b", "c", "d"]</text><text xml:space="preserve" x="200.107421875" y="41.5" stroke="none" text-anchor="end">writeProperties:</text><text xml:space="preserve" x="205.6640625" y="41.5" stroke="none" text-anchor="start">["c", "d"]</text><text xml:space="preserve" x="200.107421875" y="65.5" stroke="none" text-anchor="end">shareReadProperties:</text><text xml:space="preserve" x="205.6640625" y="65.5" stroke="none" text-anchor="start">["b", "c", "d"]</text><text xml:space="preserve" x="200.107421875" y="89.5" stroke="none" text-anchor="end">shareWriteProperties:</text><text xml:space="preserve" x="205.6640625" y="89.5" stroke="none" text-anchor="start">["d"]</text></g></g></g></g></g></g><g class="node"><g fill="#ffffff" stroke="#000000" stroke-width="4"><circle cx="75" cy="773.0818178817934" r="52"/></g><g transform="translate(75 773.0818178817934)"><g transform="scale(0.5855436252184943) translate(0 -59)"><g transform="translate(0 0)"><g fill="#000000" font-family="sans-serif" font-size="50" font-weight="normal" text-anchor="middle"><text xml:space="preserve" x="0" y="43" stroke="none">I</text></g></g><g transform="translate(0 64)"><g transform="translate(-49.24609375 0)"><g fill="#ffffff" stroke="#000000" stroke-width="4"><rect x="0" y="0" width="98.4921875" height="54" rx="27" ry="27"/><text xml:space="preserve" x="27" y="37.5" stroke="none" font-family="sans-serif" font-size="40" font-weight="normal" fill="#000000">#3</text></g></g></g></g></g></g><g class="node"><g fill="#9f0500" stroke="#000000" stroke-width="4"><circle cx="654.3081932206496" cy="773.0818178817934" r="52"/></g><g transform="translate(654.3081932206496 773.0818178817934)"><g transform="scale(0.4854695796726482) translate(0 -59)"><g transform="translate(0 0)"><g fill="#000000" font-family="sans-serif" font-size="50" font-weight="normal" text-anchor="middle"><text xml:space="preserve" x="0" y="43" stroke="none">OA3</text></g></g><g transform="translate(0 64)"><g transform="translate(-71.4921875 0)"><g fill="#ffffff" stroke="#000000" stroke-width="4"><rect x="0" y="0" width="142.984375" height="54" rx="27" ry="27"/><text xml:space="preserve" x="27" y="37.5" stroke="none" font-family="sans-serif" font-size="40" font-weight="normal" fill="#000000">oa#6</text></g></g></g></g><g transform="translate(39.59797974644666 39.597979746446654)"><g transform="translate(0 0)"><g transform="translate(0 0)" fill="white"><rect x="0" y="0" width="319.404296875" height="96" rx="0" ry="0" stroke="none"/><g font-family="sans-serif" font-size="20" font-weight="normal" fill="#000000" text-anchor="end"><text xml:space="preserve" x="200.107421875" y="17.5" stroke="none">readProperties:</text><text xml:space="preserve" x="205.6640625" y="17.5" stroke="none" text-anchor="start">["b", "c", "d"]</text><text xml:space="preserve" x="200.107421875" y="41.5" stroke="none" text-anchor="end">writeProperties:</text><text xml:space="preserve" x="205.6640625" y="41.5" stroke="none" text-anchor="start">["d"]</text><text xml:space="preserve" x="200.107421875" y="65.5" stroke="none" text-anchor="end">shareReadProperties:</text><text xml:space="preserve" x="205.6640625" y="65.5" stroke="none" text-anchor="start">["b", "c"]</text><text xml:space="preserve" x="200.107421875" y="89.5" stroke="none" text-anchor="end">shareWriteProperties:</text><text xml:space="preserve" x="205.6640625" y="89.5" stroke="none" text-anchor="start">[]</text></g></g></g></g></g></g><g class="node"><g fill="#b3b3b3" stroke="#000000" stroke-width="4"><circle cx="75" cy="333.41641672439073" r="52"/></g><g transform="translate(75 333.41641672439073)"><g transform="scale(0.4432631306540652) translate(0 -59)"><g transform="translate(0 0)"><g fill="#000000" font-family="sans-serif" font-size="50" font-weight="normal" text-anchor="middle"><text xml:space="preserve" x="0" y="43" stroke="none">DA</text></g></g><g transform="translate(0 64)"><g transform="translate(-82.615234375 0)"><g fill="#ffffff" stroke="#000000" stroke-width="4"><rect x="0" y="0" width="165.23046875" height="54" rx="27" ry="27"/><text xml:space="preserve" x="27" y="37.5" stroke="none" font-family="sans-serif" font-size="40" font-weight="normal" fill="#000000">#4521</text></g></g></g></g><g transform="translate(3.429011037612589e-15 -152)"><g transform="translate(0 0)"><g transform="translate(-132.2900390625 0)" fill="white"><rect x="0" y="0" width="264.580078125" height="96" rx="0" ry="0" stroke="none"/><g font-family="sans-serif" font-size="20" font-weight="normal" fill="#000000" text-anchor="end"><text xml:space="preserve" x="122.28515625" y="17.5" stroke="none">property:</text><text xml:space="preserve" x="127.841796875" y="17.5" stroke="none" text-anchor="start">d</text><text xml:space="preserve" x="122.28515625" y="41.5" stroke="none" text-anchor="end">propertytype:</text><text xml:space="preserve" x="127.841796875" y="41.5" stroke="none" text-anchor="start">readProperties</text><text xml:space="preserve" x="122.28515625" y="65.5" stroke="none" text-anchor="end">digitstart:</text><text xml:space="preserve" x="127.841796875" y="65.5" stroke="none" text-anchor="start">0</text><text xml:space="preserve" x="122.28515625" y="89.5" stroke="none" text-anchor="end">digitstop:</text><text xml:space="preserve" x="127.841796875" y="89.5" stroke="none" text-anchor="start">5</text></g></g></g></g></g></g><g class="node"><g fill="#fb9e00" stroke="#000000" stroke-width="4"><circle cx="1255.860030727199" cy="50" r="52"/></g><g transform="translate(1255.860030727199 50)"><g transform="scale(0.27412712074115997) translate(0 -91)"><g transform="translate(0 0)"><g fill="#000000" font-family="sans-serif" font-size="100" font-weight="normal" text-anchor="middle"><text xml:space="preserve" x="0" y="87" stroke="none">A</text></g></g><g transform="translate(0 124)"><g transform="translate(-136.6259765625 0)"><g fill="#ffffff" stroke="#000000" stroke-width="4"><rect x="0" y="0" width="273.251953125" height="58" rx="29" ry="29"/><text xml:space="preserve" x="29" y="40.5" stroke="none" font-family="sans-serif" font-size="44" font-weight="normal" fill="#000000">Application</text></g></g></g></g></g></g></g></svg>