<svg xmlns="http://www.w3.org/2000/svg" width="1368" height="995" viewBox="0 0 1368 995"><defs><style type="text/css"/></defs><g transform="translate(324.67773398867575 202.94335487885883) scale(1)"><g class="relationship"><g transform="translate(-192.38769492617575 -67.34537513241219) rotate(0)" stroke-width="5" stroke="#000000"><path d="M 59 0 L 495.44604260290134 0"/><polygon points="-24.8621506177483,0 -27.62461179749811,9.20820393249937 0,0 -27.62461179749811,-9.20820393249937" fill="#000000" transform="translate(520.3081932206496 0) rotate(0)" stroke="none"/></g><g transform="translate(84.83532637527492 -67.34537513241219) rotate(0) translate(0 -46.4)"><g transform="translate(0 0)"><g transform="translate(-34.51806640625 0)" fill="#ffffff" stroke="#000000" stroke-width="0"><rect x="0" y="0" width="69.0361328125" height="28" rx="5" ry="5" stroke="none"/><text xml:space="preserve" x="5" y="19" stroke="none" text-anchor="left" font-family="sans-serif" font-size="18" font-weight="normal" fill="#000000">relation</text></g></g><g transform="translate(0 28)"><g transform="translate(-44.52099609375 0)" fill="white"><rect x="0" y="0" width="89.0419921875" height="64.8" rx="0" ry="0" stroke="none"/><g font-family="sans-serif" font-size="18" font-weight="normal" fill="#000000" text-anchor="end"><text xml:space="preserve" x="69.029296875" y="15.799999999999999" stroke="none">owns:</text><text xml:space="preserve" x="74.0302734375" y="15.799999999999999" stroke="none" text-anchor="start">1</text><text xml:space="preserve" x="69.029296875" y="37.4" stroke="none" text-anchor="end">access:</text><text xml:space="preserve" x="74.0302734375" y="37.4" stroke="none" text-anchor="start">1</text><text xml:space="preserve" x="69.029296875" y="58.99999999999999" stroke="none" text-anchor="end">control :</text><text xml:space="preserve" x="74.0302734375" y="58.99999999999999" stroke="none" text-anchor="start">1</text></g></g></g></g></g><g class="relationship"><g transform="translate(988.4723358010233 378.1408736858402) rotate(-143.4777691737535)" stroke-width="5" stroke="#000000"><path d="M 59 0 L 664.6848493052117 0"/><polygon points="-24.8621506177483,0 -27.62461179749811,9.20820393249937 0,0 -27.62461179749811,-9.20820393249937" fill="#000000" transform="translate(689.54699992296 0) rotate(0)" stroke="none"/></g><g transform="translate(697.6863524759917 162.79591279710417) rotate(36.522230826246485) translate(0 -14)"><g transform="translate(0 0)"><g transform="translate(-41.0263671875 0)" fill="#ffffff" stroke="#000000" stroke-width="0"><rect x="0" y="0" width="82.052734375" height="28" rx="5" ry="5" stroke="none"/><text xml:space="preserve" x="5" y="19" stroke="none" text-anchor="left" font-family="sans-serif" font-size="18" font-weight="normal" fill="#000000">assigned</text></g></g></g></g><g class="relationship"><g transform="translate(988.4723358010233 75.73644274938124) rotate(90)" stroke-width="5" stroke="#000000"><path d="M 59 0 L 218.54228031871062 0"/><polygon points="-24.8621506177483,0 -27.62461179749811,9.20820393249937 0,0 -27.62461179749811,-9.20820393249937" fill="#000000" transform="translate(243.40443093645894 0) rotate(0)" stroke="none"/></g><g transform="translate(988.4723358010233 214.50758290873654) rotate(270) translate(0 -14)"><g transform="translate(0 0)"><g transform="translate(-26.51123046875 0)" fill="#ffffff" stroke="#000000" stroke-width="0"><rect x="0" y="0" width="53.0224609375" height="28" rx="5" ry="5" stroke="none"/><text xml:space="preserve" x="5" y="19" stroke="none" text-anchor="left" font-family="sans-serif" font-size="18" font-weight="normal" fill="#000000">entity</text></g></g></g></g><g class="relationship"><g transform="translate(-192.38769492617575 -67.34537513241219) rotate(37.560175405970284)" stroke-width="5" stroke="#000000"><path d="M 59 0 L 646.9291880136913 0"/><polygon points="-24.8621506177483,0 -27.62461179749811,9.20820393249937 0,0 -27.62461179749811,-9.20820393249937" fill="#000000" transform="translate(671.7913386314395 0) rotate(0)" stroke="none"/></g><g transform="translate(87.41211989906401 147.81983638231875) rotate(37.560175405970284) translate(0 -46.4)"><g transform="translate(0 0)"><g transform="translate(-34.51806640625 0)" fill="#ffffff" stroke="#000000" stroke-width="0"><rect x="0" y="0" width="69.0361328125" height="28" rx="5" ry="5" stroke="none"/><text xml:space="preserve" x="5" y="19" stroke="none" text-anchor="left" font-family="sans-serif" font-size="18" font-weight="normal" fill="#000000">relation</text></g></g><g transform="translate(0 28)"><g transform="translate(-44.52099609375 0)" fill="white"><rect x="0" y="0" width="89.0419921875" height="64.8" rx="0" ry="0" stroke="none"/><g font-family="sans-serif" font-size="18" font-weight="normal" fill="#000000" text-anchor="end"><text xml:space="preserve" x="69.029296875" y="15.799999999999999" stroke="none">owns:</text><text xml:space="preserve" x="74.0302734375" y="15.799999999999999" stroke="none" text-anchor="start">0</text><text xml:space="preserve" x="69.029296875" y="37.4" stroke="none" text-anchor="end">access:</text><text xml:space="preserve" x="74.0302734375" y="37.4" stroke="none" text-anchor="start">0</text><text xml:space="preserve" x="69.029296875" y="58.99999999999999" stroke="none" text-anchor="end">control :</text><text xml:space="preserve" x="74.0302734375" y="58.99999999999999" stroke="none" text-anchor="start">1</text></g></g></g></g></g><g class="relationship"><g transform="translate(-192.38769492617575 435.90374217067995) rotate(-5.694146155564235)" stroke-width="5" stroke="#000000"><path d="M 59 0 L 498.3186904515628 0"/><polygon points="-24.8621506177483,0 -27.62461179749811,9.20820393249937 0,0 -27.62461179749811,-9.20820393249937" fill="#000000" transform="translate(523.1808410693111 0) rotate(0)" stroke="none"/></g><g transform="translate(84.89666487909273 408.25569542152203) rotate(-5.694146155564235) translate(0 -46.4)"><g transform="translate(0 0)"><g transform="translate(-34.51806640625 0)" fill="#ffffff" stroke="#000000" stroke-width="0"><rect x="0" y="0" width="69.0361328125" height="28" rx="5" ry="5" stroke="none"/><text xml:space="preserve" x="5" y="19" stroke="none" text-anchor="left" font-family="sans-serif" font-size="18" font-weight="normal" fill="#000000">relation</text></g></g><g transform="translate(0 28)"><g transform="translate(-43.01806640625 0)" fill="white"><rect x="0" y="0" width="86.0361328125" height="64.8" rx="0" ry="0" stroke="none"/><g font-family="sans-serif" font-size="18" font-weight="normal" fill="#000000" text-anchor="end"><text xml:space="preserve" x="66.0234375" y="15.799999999999999" stroke="none">owns:</text><text xml:space="preserve" x="71.0244140625" y="15.799999999999999" stroke="none" text-anchor="start">0</text><text xml:space="preserve" x="66.0234375" y="37.4" stroke="none" text-anchor="end">access:</text><text xml:space="preserve" x="71.0244140625" y="37.4" stroke="none" text-anchor="start">1</text><text xml:space="preserve" x="66.0234375" y="58.99999999999999" stroke="none" text-anchor="end">control:</text><text xml:space="preserve" x="71.0244140625" y="58.99999999999999" stroke="none" text-anchor="start">0</text></g></g></g></g></g><g class="relationship"><g stroke-width="5" stroke="#000000"><path d="M 929.4723358010233 378.1408736858402 L 926.5233088336588 378.1408736858402 A 40 40 0 0 1 926.5233088336588 378.1408736858402 L 470.78264891222216 378.1408736858402 L 470.78264891222216 378.1408736858402"/><polygon points="-24.8621506177483,0 -27.62461179749811,9.20820393249937 0,0 -27.62461179749811,-9.20820393249937" fill="#000000" transform="translate(470.78264891222216 378.1408736858402) rotate(180) translate(24.8621506177483 0)" stroke="none"/></g><g transform="translate(698.6529788729405 378.1408736858402) rotate(360) translate(0 -14)"><g transform="translate(0 0)"><g transform="translate(-41.0263671875 0)" fill="#ffffff" stroke="#000000" stroke-width="0"><rect x="0" y="0" width="82.052734375" height="28" rx="5" ry="5" stroke="none"/><text xml:space="preserve" x="5" y="19" stroke="none" text-anchor="left" font-family="sans-serif" font-size="18" font-weight="normal" fill="#000000">assigned</text></g></g></g></g><g class="relationship"><g transform="translate(386.9204982944739 378.1408736858402) rotate(-90)" stroke-width="5" stroke="#000000"><path d="M 59 0 L 361.6240982005041 0"/><polygon points="-24.8621506177483,0 -27.62461179749811,9.20820393249937 0,0 -27.62461179749811,-9.20820393249937" fill="#000000" transform="translate(386.48624881825236 0) rotate(0)" stroke="none"/></g><g transform="translate(386.9204982944739 167.82882458558814) rotate(90) translate(0 -13)"><g transform="translate(0 0)"><g transform="translate(-24.5625 0)" fill="#ffffff" stroke="#000000" stroke-width="0"><rect x="0" y="0" width="49.125" height="26" rx="5" ry="5" stroke="none"/><text xml:space="preserve" x="5" y="17.5" stroke="none" text-anchor="left" font-family="sans-serif" font-size="16" font-weight="normal" fill="#000000">rights</text></g></g></g></g><g class="relationship"><g transform="translate(-192.38769492617575 435.90374217067995) rotate(20.780477802165876)" stroke-width="5" stroke="#000000"><path d="M 59 0 L 535.7541814590446 0"/><polygon points="-24.8621506177483,0 -27.62461179749811,9.20820393249937 0,0 -27.62461179749811,-9.20820393249937" fill="#000000" transform="translate(560.6163320767929 0) rotate(0)" stroke="none"/></g><g transform="translate(85.64400988431316 541.4096908699248) rotate(20.780477802165876) translate(0 -46.4)"><g transform="translate(0 0)"><g transform="translate(-34.51806640625 0)" fill="#ffffff" stroke="#000000" stroke-width="0"><rect x="0" y="0" width="69.0361328125" height="28" rx="5" ry="5" stroke="none"/><text xml:space="preserve" x="5" y="19" stroke="none" text-anchor="left" font-family="sans-serif" font-size="18" font-weight="normal" fill="#000000">relation</text></g></g><g transform="translate(0 28)"><g transform="translate(-43.01806640625 0)" fill="white"><rect x="0" y="0" width="86.0361328125" height="64.8" rx="0" ry="0" stroke="none"/><g font-family="sans-serif" font-size="18" font-weight="normal" fill="#000000" text-anchor="end"><text xml:space="preserve" x="66.0234375" y="15.799999999999999" stroke="none">owns:</text><text xml:space="preserve" x="71.0244140625" y="15.799999999999999" stroke="none" text-anchor="start">0</text><text xml:space="preserve" x="66.0234375" y="37.4" stroke="none" text-anchor="end">access:</text><text xml:space="preserve" x="71.0244140625" y="37.4" stroke="none" text-anchor="start">0</text><text xml:space="preserve" x="66.0234375" y="58.99999999999999" stroke="none" text-anchor="end">control:</text><text xml:space="preserve" x="71.0244140625" y="58.99999999999999" stroke="none" text-anchor="start">1</text></g></g></g></g></g><g class="relationship"><g transform="translate(-192.38769492617575 655.7364427493812) rotate(0)" stroke-width="5" stroke="#000000"><path d="M 59 0 L 495.44604260290134 0"/><polygon points="-24.8621506177483,0 -27.62461179749811,9.20820393249937 0,0 -27.62461179749811,-9.20820393249937" fill="#000000" transform="translate(520.3081932206496 0) rotate(0)" stroke="none"/></g><g transform="translate(84.83532637527492 655.7364427493812) rotate(0) translate(0 -46.4)"><g transform="translate(0 0)"><g transform="translate(-34.51806640625 0)" fill="#ffffff" stroke="#000000" stroke-width="0"><rect x="0" y="0" width="69.0361328125" height="28" rx="5" ry="5" stroke="none"/><text xml:space="preserve" x="5" y="19" stroke="none" text-anchor="left" font-family="sans-serif" font-size="18" font-weight="normal" fill="#000000">relation</text></g></g><g transform="translate(0 28)"><g transform="translate(-43.01806640625 0)" fill="white"><rect x="0" y="0" width="86.0361328125" height="64.8" rx="0" ry="0" stroke="none"/><g font-family="sans-serif" font-size="18" font-weight="normal" fill="#000000" text-anchor="end"><text xml:space="preserve" x="66.0234375" y="15.799999999999999" stroke="none">owns:</text><text xml:space="preserve" x="71.0244140625" y="15.799999999999999" stroke="none" text-anchor="start">0</text><text xml:space="preserve" x="66.0234375" y="37.4" stroke="none" text-anchor="end">access:</text><text xml:space="preserve" x="71.0244140625" y="37.4" stroke="none" text-anchor="start">1</text><text xml:space="preserve" x="66.0234375" y="58.99999999999999" stroke="none" text-anchor="end">control:</text><text xml:space="preserve" x="71.0244140625" y="58.99999999999999" stroke="none" text-anchor="start">0</text></g></g></g></g></g><g class="relationship"><g transform="translate(386.9204982944739 655.7364427493812) rotate(-90)" stroke-width="5" stroke="#000000"><path d="M 59 0 L 193.73341844579275 0"/><polygon points="-24.8621506177483,0 -27.62461179749811,9.20820393249937 0,0 -27.62461179749811,-9.20820393249937" fill="#000000" transform="translate(218.59556906354106 0) rotate(0)" stroke="none"/></g><g transform="translate(386.9204982944739 529.3697335264849) rotate(90) translate(0 -13)"><g transform="translate(0 0)"><g transform="translate(-24.5625 0)" fill="#ffffff" stroke="#000000" stroke-width="0"><rect x="0" y="0" width="49.125" height="26" rx="5" ry="5" stroke="none"/><text xml:space="preserve" x="5" y="17.5" stroke="none" text-anchor="left" font-family="sans-serif" font-size="16" font-weight="normal" fill="#000000">rights</text></g></g></g></g><g class="relationship"><g transform="translate(988.4723358010233 378.1408736858402) rotate(155.2282940513788)" stroke-width="5" stroke="#000000"><path d="M 59 0 L 578.6511799433938 0"/><polygon points="-24.8621506177483,0 -27.62461179749811,9.20820393249937 0,0 -27.62461179749811,-9.20820393249937" fill="#000000" transform="translate(603.5133305611421 0) rotate(0)" stroke="none"/></g><g transform="translate(698.9836407899513 511.72999106291985) rotate(335.22829405137884) translate(0 -14)"><g transform="translate(0 0)"><g transform="translate(-41.0263671875 0)" fill="#ffffff" stroke="#000000" stroke-width="0"><rect x="0" y="0" width="82.052734375" height="28" rx="5" ry="5" stroke="none"/><text xml:space="preserve" x="5" y="19" stroke="none" text-anchor="left" font-family="sans-serif" font-size="18" font-weight="normal" fill="#000000">assigned</text></g></g></g></g><g class="relationship"><g transform="translate(386.9204982944739 378.1408736858402) rotate(-164.37026971113428)" stroke-width="5" stroke="#000000"><path d="M 59 0 L 517.6896868888011 0"/><polygon points="-24.8621506177483,0 -27.62461179749811,9.20820393249937 0,0 -27.62461179749811,-9.20820393249937" fill="#000000" transform="translate(542.5518375065494 0) rotate(0)" stroke="none"/></g><g transform="translate(109.23781184029423 300.45513249374216) rotate(15.629730288865707) translate(0 -14)"><g transform="translate(0 0)"><g transform="translate(-52.0126953125 0)" fill="#ffffff" stroke="#000000" stroke-width="0"><rect x="0" y="0" width="104.025390625" height="28" rx="5" ry="5" stroke="none"/><text xml:space="preserve" x="5" y="19" stroke="none" text-anchor="left" font-family="sans-serif" font-size="18" font-weight="normal" fill="#000000">DigitAccess</text></g></g></g></g><g class="node"><g fill="#009ce0" stroke="#000000" stroke-width="4"><circle cx="988.4723358010233" cy="75.73644274938124" r="52"/></g><g transform="translate(988.4723358010233 75.73644274938124)"><g transform="scale(0.2337964134874004) translate(0 -91)"><g transform="translate(0 0)"><g fill="#000000" font-family="sans-serif" font-size="100" font-weight="normal" text-anchor="middle"><text xml:space="preserve" x="0" y="87" stroke="none">E</text></g></g><g transform="translate(0 124)"><g transform="translate(-169.6044921875 0)"><g fill="#ffffff" stroke="#000000" stroke-width="4"><rect x="0" y="0" width="339.208984375" height="58" rx="29" ry="29"/><text xml:space="preserve" x="29" y="40.5" stroke="none" font-family="sans-serif" font-size="44" font-weight="normal" fill="#000000">ExampleClass</text></g></g></g></g></g></g><g class="node"><g fill="#9f0500" stroke="#000000" stroke-width="4"><circle cx="386.9204982944739" cy="-67.34537513241219" r="52"/></g><g transform="translate(386.9204982944739 -67.34537513241219)"><g transform="scale(0.4854695796726482) translate(0 -59)"><g transform="translate(0 0)"><g fill="#000000" font-family="sans-serif" font-size="50" font-weight="normal" text-anchor="middle"><text xml:space="preserve" x="0" y="43" stroke="none">OA</text></g></g><g transform="translate(0 64)"><g transform="translate(-71.4921875 0)"><g fill="#ffffff" stroke="#000000" stroke-width="4"><rect x="0" y="0" width="142.984375" height="54" rx="27" ry="27"/><text xml:space="preserve" x="27" y="37.5" stroke="none" font-family="sans-serif" font-size="40" font-weight="normal" fill="#000000">oa#4</text></g></g></g></g><g transform="translate(39.59797974644666 -135.59797974644664)"><g transform="translate(0 0)"><g transform="translate(0 0)" fill="white"><rect x="0" y="0" width="392.275390625" height="96" rx="0" ry="0" stroke="none"/><g font-family="sans-serif" font-size="20" font-weight="normal" fill="#000000" text-anchor="end"><text xml:space="preserve" x="200.107421875" y="17.5" stroke="none">readProperties:</text><text xml:space="preserve" x="205.6640625" y="17.5" stroke="none" text-anchor="start">["a", "b", "c", "d", "e"]</text><text xml:space="preserve" x="200.107421875" y="41.5" stroke="none" text-anchor="end">writeProperties:</text><text xml:space="preserve" x="205.6640625" y="41.5" stroke="none" text-anchor="start">["a", "b", "c", "d", "e"]</text><text xml:space="preserve" x="200.107421875" y="65.5" stroke="none" text-anchor="end">shareReadProperties:</text><text xml:space="preserve" x="205.6640625" y="65.5" stroke="none" text-anchor="start">["a", "b", "c", "d", "e"]</text><text xml:space="preserve" x="200.107421875" y="89.5" stroke="none" text-anchor="end">shareWriteProperties:</text><text xml:space="preserve" x="205.6640625" y="89.5" stroke="none" text-anchor="start">["a", "b", "c", "d", "e"]</text></g></g></g></g></g></g><g class="node"><g fill="#fcdc00" stroke="#000000" stroke-width="4"><circle cx="988.4723358010233" cy="378.1408736858402" r="52"/></g><g transform="translate(988.4723358010233 378.1408736858402)"><g transform="scale(0.4432631306540652) translate(0 -59)"><g transform="translate(0 0)"><g fill="#000000" font-family="sans-serif" font-size="50" font-weight="normal" text-anchor="middle"><text xml:space="preserve" x="0" y="43" stroke="none">O</text></g></g><g transform="translate(0 64)"><g transform="translate(-82.615234375 0)"><g fill="#ffffff" stroke="#000000" stroke-width="4"><rect x="0" y="0" width="165.23046875" height="54" rx="27" ry="27"/><text xml:space="preserve" x="27" y="37.5" stroke="none" font-family="sans-serif" font-size="40" font-weight="normal" fill="#000000">#3435</text></g></g></g></g></g></g><g class="node"><g fill="#ffffff" stroke="#000000" stroke-width="4"><circle cx="-192.38769492617575" cy="-67.34537513241219" r="52"/></g><g transform="translate(-192.38769492617575 -67.34537513241219)"><g transform="scale(0.5855436252184943) translate(0 -59)"><g transform="translate(0 0)"><g fill="#000000" font-family="sans-serif" font-size="50" font-weight="normal" text-anchor="middle"><text xml:space="preserve" x="0" y="43" stroke="none">I</text></g></g><g transform="translate(0 64)"><g transform="translate(-49.24609375 0)"><g fill="#ffffff" stroke="#000000" stroke-width="4"><rect x="0" y="0" width="98.4921875" height="54" rx="27" ry="27"/><text xml:space="preserve" x="27" y="37.5" stroke="none" font-family="sans-serif" font-size="40" font-weight="normal" fill="#000000">#1</text></g></g></g></g></g></g><g class="node"><g fill="#ffffff" stroke="#000000" stroke-width="4"><circle cx="-192.38769492617575" cy="435.90374217067995" r="52"/></g><g transform="translate(-192.38769492617575 435.90374217067995)"><g transform="scale(0.5855436252184943) translate(0 -59)"><g transform="translate(0 0)"><g fill="#000000" font-family="sans-serif" font-size="50" font-weight="normal" text-anchor="middle"><text xml:space="preserve" x="0" y="43" stroke="none">I</text></g></g><g transform="translate(0 64)"><g transform="translate(-49.24609375 0)"><g fill="#ffffff" stroke="#000000" stroke-width="4"><rect x="0" y="0" width="98.4921875" height="54" rx="27" ry="27"/><text xml:space="preserve" x="27" y="37.5" stroke="none" font-family="sans-serif" font-size="40" font-weight="normal" fill="#000000">#2</text></g></g></g></g></g></g><g class="node"><g fill="#9f0500" stroke="#000000" stroke-width="4"><circle cx="386.9204982944739" cy="378.1408736858402" r="52"/></g><g transform="translate(386.9204982944739 378.1408736858402)"><g transform="scale(0.4854695796726482) translate(0 -59)"><g transform="translate(0 0)"><g fill="#000000" font-family="sans-serif" font-size="50" font-weight="normal" text-anchor="middle"><text xml:space="preserve" x="0" y="43" stroke="none">OA</text></g></g><g transform="translate(0 64)"><g transform="translate(-71.4921875 0)"><g fill="#ffffff" stroke="#000000" stroke-width="4"><rect x="0" y="0" width="142.984375" height="54" rx="27" ry="27"/><text xml:space="preserve" x="27" y="37.5" stroke="none" font-family="sans-serif" font-size="40" font-weight="normal" fill="#000000">oa#5</text></g></g></g></g><g transform="translate(39.59797974644666 -135.59797974644664)"><g transform="translate(0 0)"><g transform="translate(0 0)" fill="white"><rect x="0" y="0" width="355.83984375" height="96" rx="0" ry="0" stroke="none"/><g font-family="sans-serif" font-size="20" font-weight="normal" fill="#000000" text-anchor="end"><text xml:space="preserve" x="200.107421875" y="17.5" stroke="none">readProperties:</text><text xml:space="preserve" x="205.6640625" y="17.5" stroke="none" text-anchor="start">["a", "b", "c", "d"]</text><text xml:space="preserve" x="200.107421875" y="41.5" stroke="none" text-anchor="end">writeProperties:</text><text xml:space="preserve" x="205.6640625" y="41.5" stroke="none" text-anchor="start">["c", "d"]</text><text xml:space="preserve" x="200.107421875" y="65.5" stroke="none" text-anchor="end">shareReadProperties:</text><text xml:space="preserve" x="205.6640625" y="65.5" stroke="none" text-anchor="start">["b", "c", "d"]</text><text xml:space="preserve" x="200.107421875" y="89.5" stroke="none" text-anchor="end">shareWriteProperties:</text><text xml:space="preserve" x="205.6640625" y="89.5" stroke="none" text-anchor="start">["d"]</text></g></g></g></g></g></g><g class="node"><g fill="#ffffff" stroke="#000000" stroke-width="4"><circle cx="-192.38769492617575" cy="655.7364427493812" r="52"/></g><g transform="translate(-192.38769492617575 655.7364427493812)"><g transform="scale(0.5855436252184943) translate(0 -59)"><g transform="translate(0 0)"><g fill="#000000" font-family="sans-serif" font-size="50" font-weight="normal" text-anchor="middle"><text xml:space="preserve" x="0" y="43" stroke="none">I</text></g></g><g transform="translate(0 64)"><g transform="translate(-49.24609375 0)"><g fill="#ffffff" stroke="#000000" stroke-width="4"><rect x="0" y="0" width="98.4921875" height="54" rx="27" ry="27"/><text xml:space="preserve" x="27" y="37.5" stroke="none" font-family="sans-serif" font-size="40" font-weight="normal" fill="#000000">#3</text></g></g></g></g></g></g><g class="node"><g fill="#9f0500" stroke="#000000" stroke-width="4"><circle cx="386.9204982944739" cy="655.7364427493812" r="52"/></g><g transform="translate(386.9204982944739 655.7364427493812)"><g transform="scale(0.4854695796726482) translate(0 -59)"><g transform="translate(0 0)"><g fill="#000000" font-family="sans-serif" font-size="50" font-weight="normal" text-anchor="middle"><text xml:space="preserve" x="0" y="43" stroke="none">OA3</text></g></g><g transform="translate(0 64)"><g transform="translate(-71.4921875 0)"><g fill="#ffffff" stroke="#000000" stroke-width="4"><rect x="0" y="0" width="142.984375" height="54" rx="27" ry="27"/><text xml:space="preserve" x="27" y="37.5" stroke="none" font-family="sans-serif" font-size="40" font-weight="normal" fill="#000000">oa#6</text></g></g></g></g><g transform="translate(39.59797974644666 39.597979746446654)"><g transform="translate(0 0)"><g transform="translate(0 0)" fill="white"><rect x="0" y="0" width="319.404296875" height="96" rx="0" ry="0" stroke="none"/><g font-family="sans-serif" font-size="20" font-weight="normal" fill="#000000" text-anchor="end"><text xml:space="preserve" x="200.107421875" y="17.5" stroke="none">readProperties:</text><text xml:space="preserve" x="205.6640625" y="17.5" stroke="none" text-anchor="start">["b", "c", "d"]</text><text xml:space="preserve" x="200.107421875" y="41.5" stroke="none" text-anchor="end">writeProperties:</text><text xml:space="preserve" x="205.6640625" y="41.5" stroke="none" text-anchor="start">["d"]</text><text xml:space="preserve" x="200.107421875" y="65.5" stroke="none" text-anchor="end">shareReadProperties:</text><text xml:space="preserve" x="205.6640625" y="65.5" stroke="none" text-anchor="start">["b", "c"]</text><text xml:space="preserve" x="200.107421875" y="89.5" stroke="none" text-anchor="end">shareWriteProperties:</text><text xml:space="preserve" x="205.6640625" y="89.5" stroke="none" text-anchor="start">[]</text></g></g></g></g></g></g><g class="node"><g fill="#b3b3b3" stroke="#000000" stroke-width="4"><circle cx="-192.38769492617575" cy="216.07104159197857" r="52"/></g><g transform="translate(-192.38769492617575 216.07104159197857)"><g transform="scale(0.4432631306540652) translate(0 -59)"><g transform="translate(0 0)"><g fill="#000000" font-family="sans-serif" font-size="50" font-weight="normal" text-anchor="middle"><text xml:space="preserve" x="0" y="43" stroke="none">DA</text></g></g><g transform="translate(0 64)"><g transform="translate(-82.615234375 0)"><g fill="#ffffff" stroke="#000000" stroke-width="4"><rect x="0" y="0" width="165.23046875" height="54" rx="27" ry="27"/><text xml:space="preserve" x="27" y="37.5" stroke="none" font-family="sans-serif" font-size="40" font-weight="normal" fill="#000000">#4521</text></g></g></g></g><g transform="translate(3.429011037612589e-15 -152)"><g transform="translate(0 0)"><g transform="translate(-132.2900390625 0)" fill="white"><rect x="0" y="0" width="264.580078125" height="96" rx="0" ry="0" stroke="none"/><g font-family="sans-serif" font-size="20" font-weight="normal" fill="#000000" text-anchor="end"><text xml:space="preserve" x="122.28515625" y="17.5" stroke="none">property:</text><text xml:space="preserve" x="127.841796875" y="17.5" stroke="none" text-anchor="start">d</text><text xml:space="preserve" x="122.28515625" y="41.5" stroke="none" text-anchor="end">propertytype:</text><text xml:space="preserve" x="127.841796875" y="41.5" stroke="none" text-anchor="start">readProperties</text><text xml:space="preserve" x="122.28515625" y="65.5" stroke="none" text-anchor="end">digitstart:</text><text xml:space="preserve" x="127.841796875" y="65.5" stroke="none" text-anchor="start">0</text><text xml:space="preserve" x="122.28515625" y="89.5" stroke="none" text-anchor="end">digitstop:</text><text xml:space="preserve" x="127.841796875" y="89.5" stroke="none" text-anchor="start">5</text></g></g></g></g></g></g></g></svg>